<svg id="svg" version="1.1" xmlns="http://www.w3.org/2000/svg" xmlns:xlink="http://www.w3.org/1999/xlink" width="400" height="297.7547495682211" viewBox="0, 0, 400,297.7547495682211"><g id="svgg"><path id="path0" d="M105.836 9.499 C 105.063 12.610,104.647 19.534,102.899 58.377 C 101.295 93.989,100.946 105.454,99.531 168.912 C 98.726 205.009,97.869 243.402,97.626 254.231 C 97.100 277.725,96.359 276.224,95.751 250.432 C 95.509 240.173,95.007 218.877,94.635 203.109 C 94.263 187.340,93.653 161.071,93.279 144.732 C 91.583 70.519,88.049 32.215,85.040 55.417 C 84.583 58.945,84.062 62.763,83.882 63.903 C 83.421 66.832,81.704 111.322,80.789 144.041 C 80.364 159.240,79.764 172.763,79.456 174.093 L 78.895 176.511 78.815 173.402 C 78.608 165.352,77.271 167.515,75.920 178.087 C 74.476 189.382,74.172 188.074,72.203 162.091 C 71.652 154.823,70.843 144.680,70.404 139.551 C 68.087 112.446,60.115 105.024,56.674 126.770 C 54.688 139.325,51.892 148.291,50.458 146.706 C 50.164 146.380,48.741 142.585,47.296 138.272 C 45.851 133.959,44.107 129.762,43.422 128.946 L 42.176 127.461 39.793 130.225 C 38.483 131.744,37.041 134.387,36.588 136.097 C 33.391 148.181,32.862 148.583,30.742 140.540 C 28.787 133.128,28.562 132.642,27.085 132.642 C 25.576 132.642,23.155 135.097,22.485 137.306 C 22.226 138.161,21.762 138.860,21.453 138.860 C 20.896 138.860,20.560 138.111,18.247 131.718 C 15.920 125.290,12.714 125.043,11.143 131.171 C 10.274 134.563,7.133 138.169,5.048 138.169 C 4.551 138.169,4.145 138.480,4.145 138.860 C 4.145 142.350,11.240 136.355,12.381 131.902 C 13.653 126.939,14.991 127.584,17.874 134.549 C 20.590 141.113,21.407 141.457,24.019 137.133 C 26.486 133.048,27.369 133.211,28.701 137.997 C 31.068 146.500,31.504 147.496,32.863 147.496 C 34.455 147.496,35.429 145.580,37.086 139.189 C 38.410 134.080,41.596 129.027,42.733 130.233 C 43.087 130.608,44.533 134.335,45.946 138.515 C 50.533 152.080,53.286 151.341,56.237 135.751 C 59.948 116.142,61.361 113.111,64.534 117.937 C 67.557 122.534,68.434 128.791,71.150 165.112 C 72.565 184.046,73.467 189.292,75.306 189.292 C 75.596 189.292,76.047 187.285,76.310 184.831 C 76.852 179.771,77.906 175.512,78.006 177.981 C 78.063 179.380,79.852 181.518,80.458 180.912 C 80.864 180.506,82.046 150.765,82.898 119.516 C 84.356 66.024,86.500 40.561,88.000 58.916 C 90.449 88.875,91.085 106.884,93.963 227.634 C 94.829 263.977,95.988 291.731,96.670 292.437 C 97.965 293.778,99.152 260.900,100.170 195.509 C 101.139 133.164,101.910 108.015,104.709 47.323 C 106.629 5.708,107.048 8.213,108.468 69.775 C 108.849 86.304,109.622 119.879,110.186 144.387 C 111.639 207.498,112.508 233.531,113.420 241.278 C 115.208 256.465,116.603 246.474,118.122 207.599 C 118.523 197.340,119.159 181.019,119.535 171.330 C 120.449 147.810,121.463 129.047,122.300 120.207 C 122.677 116.218,123.318 109.378,123.724 105.009 C 124.641 95.121,126.196 85.617,127.033 84.780 C 127.958 83.856,128.994 90.183,130.517 106.045 C 135.585 158.832,137.874 170.255,142.263 164.675 C 144.719 161.553,146.639 153.598,148.909 137.143 C 151.462 118.635,155.009 117.847,159.303 134.831 C 163.081 149.779,167.831 154.219,170.351 145.160 C 175.240 127.587,177.801 125.552,182.281 135.681 C 184.773 141.314,187.491 140.681,189.501 133.999 C 192.046 125.535,193.076 126.064,197.634 138.172 C 202.805 151.905,203.193 151.903,206.938 138.110 C 208.533 132.233,211.091 126.844,212.013 127.414 C 212.276 127.576,213.401 130.686,214.512 134.323 C 218.753 148.209,223.131 147.776,227.046 133.083 C 227.718 130.561,228.468 128.497,228.712 128.497 C 229.373 128.497,233.307 137.452,233.873 140.242 C 235.253 147.048,239.998 153.302,243.366 152.754 C 243.659 152.706,244.225 153.524,244.623 154.572 C 246.885 160.520,247.791 148.322,249.815 84.629 C 250.082 76.231,250.522 70.239,250.799 71.238 C 251.436 73.540,252.685 92.302,253.185 107.081 C 254.730 152.773,257.198 194.128,258.380 194.128 C 259.891 194.128,260.553 191.117,261.513 179.890 C 264.494 145.010,265.203 139.369,267.719 130.570 C 268.916 126.381,269.561 120.184,270.847 100.518 C 272.425 76.395,273.115 80.009,276.325 129.188 C 279.432 176.804,281.178 195.509,282.518 195.509 C 284.693 195.509,285.930 185.873,288.103 151.986 C 290.780 110.259,292.958 99.229,296.014 111.923 C 296.608 114.390,297.836 119.050,298.743 122.280 C 299.650 125.509,301.230 132.192,302.255 137.130 C 304.160 146.315,306.063 151.295,307.666 151.295 C 310.208 151.295,313.679 144.927,315.383 137.133 C 318.070 124.849,323.957 121.202,324.003 131.794 C 324.020 135.620,329.460 143.722,330.871 142.022 C 332.590 139.951,335.387 140.043,338.700 142.279 C 342.974 145.163,344.240 145.007,346.805 141.278 C 348.230 139.206,349.451 138.163,350.465 138.150 C 351.390 138.139,352.663 137.199,353.713 135.751 C 354.663 134.442,355.822 133.363,356.287 133.352 C 356.753 133.342,358.152 132.713,359.396 131.954 C 362.083 130.316,364.955 130.168,366.149 131.606 C 366.622 132.176,367.700 132.642,368.544 132.642 C 370.876 132.642,372.464 134.914,374.451 141.095 C 377.239 149.766,378.673 150.042,380.707 142.298 C 382.076 137.082,383.879 133.540,386.761 130.404 C 387.718 129.364,388.310 128.322,388.079 128.090 C 386.602 126.614,381.161 135.335,379.611 141.662 C 378.212 147.370,377.949 147.258,375.459 139.896 C 373.503 134.113,371.555 131.261,369.561 131.261 C 368.911 131.261,367.489 130.792,366.400 130.220 C 363.048 128.456,355.839 130.937,352.714 134.930 C 351.723 136.197,350.371 137.104,349.460 137.115 C 348.408 137.127,347.260 138.087,345.926 140.069 C 343.577 143.559,342.786 143.655,338.753 140.933 C 335.265 138.579,334.402 138.451,331.641 139.878 C 330.105 140.673,329.531 140.711,329.030 140.051 C 327.853 138.503,326.193 134.410,325.323 130.915 C 323.766 124.656,322.621 122.478,321.613 123.857 C 321.136 124.509,320.116 125.043,319.346 125.043 C 317.509 125.043,316.222 127.849,314.310 136.021 C 310.186 153.652,306.622 153.389,303.213 135.201 C 302.415 130.944,301.036 125.130,300.148 122.280 C 299.261 119.430,298.012 114.666,297.373 111.693 C 296.417 107.242,295.917 106.153,294.546 105.528 C 290.585 103.723,289.810 108.564,286.688 154.656 C 283.370 203.633,282.661 203.221,279.119 150.259 C 275.117 90.429,274.230 81.520,272.273 81.520 C 271.304 81.520,270.241 89.426,269.395 102.936 C 268.382 119.098,267.621 126.046,266.388 130.403 C 264.995 135.327,262.705 149.092,262.223 155.440 C 258.962 198.435,258.482 199.068,256.988 162.349 C 256.594 152.660,255.962 139.447,255.585 132.988 C 255.207 126.528,254.595 113.005,254.225 102.936 C 253.855 92.867,253.407 83.541,253.231 82.211 C 253.055 80.881,252.539 75.518,252.084 70.294 C 250.432 51.281,248.961 61.233,248.027 97.755 C 247.353 124.093,246.209 148.514,245.557 150.484 C 244.261 154.396,237.213 147.921,235.537 141.278 C 233.893 134.766,230.014 126.425,228.629 126.425 C 227.689 126.425,226.778 128.540,225.230 134.316 C 222.048 146.190,219.410 145.975,215.593 133.534 C 214.403 129.654,213.156 126.311,212.822 126.105 C 210.776 124.841,207.639 129.891,205.808 137.395 C 203.225 147.986,202.748 148.297,200.125 141.098 C 196.417 130.921,195.387 128.601,194.029 127.372 C 191.958 125.498,190.581 126.835,188.599 132.643 C 186.327 139.301,185.252 139.608,183.112 134.211 C 182.625 132.983,181.156 130.844,179.848 129.456 L 177.468 126.933 175.440 128.876 C 173.751 130.494,169.257 141.884,169.257 144.547 C 169.257 144.789,168.936 145.833,168.543 146.867 L 167.829 148.745 165.830 146.830 C 163.424 144.526,163.002 143.511,160.231 133.389 C 157.765 124.379,156.029 121.422,153.388 121.731 C 150.163 122.107,149.441 124.609,146.153 146.805 C 144.732 156.394,142.024 164.421,140.211 164.421 C 138.431 164.421,136.076 148.860,132.631 114.335 C 129.863 86.591,129.087 81.996,127.231 82.353 C 123.572 83.058,120.274 116.989,118.112 176.166 C 117.703 187.375,116.918 205.414,116.369 216.254 C 115.820 227.093,115.362 237.041,115.350 238.361 C 115.336 240.051,115.153 240.454,114.734 239.724 C 114.407 239.154,113.791 228.739,113.367 216.580 C 112.637 195.693,112.177 176.682,110.543 99.827 C 109.247 38.872,108.062 6.218,107.144 6.218 C 106.873 6.218,106.285 7.694,105.836 9.499 " stroke="none" fill="#000000" fill-rule="evenodd"></path></g></svg>