<svg viewBox="-1280 -488.5 2560 977" width="2560" height="977" style="background-color: rgb(255, 255, 255);" xmlns="http://www.w3.org/2000/svg"><path d="M400.83661537958403,-183.56072401928665L400.83661537958403,183.04363419696404M400.83661537958403,183.04363419696404L375.84840881388766,183.0441628484066M400.83661537958403,183.04363419696404L400.8630286660377,183.54376323131595M375.84840881388766,-183.5601953678441L375.84840881388766,183.0441628484066M375.84840881388766,183.0441628484066L375.87482210034125,183.5442918827585M303.74768569459343,-162.64738375386528L303.74768569459343,162.13440196567467M303.74768569459343,162.13440196567467L278.759479128897,162.13493061711722M303.74768569459343,162.13440196567467L303.774098981047,162.6345310000266M278.759479128897,-162.64685510242273L278.759479128897,162.13493061711722M278.759479128897,162.13493061711722L278.7858924153506,162.63505965146916M206.65875600960283,-146.4062459505721L206.65875600960283,145.89737219651354M206.65875600960283,145.89737219651354L181.67054944390642,145.8979008479561M206.65875600960283,145.89737219651354L206.68516929605644,146.39750123086546M181.67054944390642,-146.40571729912955L181.67054944390642,145.8979008479561M181.67054944390642,145.8979008479561L181.69696273036004,146.398029882308M109.56982632461227,-130.16509439790434L109.56982632461227,129.66032867797782M109.56982632461227,129.66032867797782L84.58161975891585,129.66085732942037M109.56982632461227,129.66032867797782L109.59623961106587,130.16045771232973M84.58161975891585,-130.1645657464618L84.58161975891585,129.66085732942037M84.58161975891585,129.66085732942037L84.60803304536945,130.16098636377228" style="fill:none;stroke:rgb(0,0,0);stroke-width:1;stroke-linecap:round"></path><path d="M400.83661537958403,183.043634196964L375.84840881388766,183.0441628484066L375.84840881388766,-183.5601953678441zM303.74768569459343,162.13440196567467L278.759479128897,162.13493061711722L278.759479128897,-162.64685510242273zM206.65875600960283,145.89737219651352L181.67054944390642,145.8979008479561L181.67054944390642,-146.40571729912955zM109.56982632461228,129.66032867797782L84.58161975891585,129.6608573294204L84.58161975891585,-130.16456574646176zM109.56982632461228,-130.16509439790434L109.56982632461228,129.66032867797782L84.58161975891585,-130.16456574646176zM206.65875600960283,-146.4062459505721L206.65875600960283,145.89737219651352L181.67054944390642,-146.40571729912955zM303.74768569459343,-162.64738375386528L303.74768569459343,162.13440196567467L278.759479128897,-162.64685510242273zM400.83661537958403,-183.56072401928668L400.83661537958403,183.043634196964L375.84840881388766,-183.5601953678441z" style="fill:rgb(238,238,238); fill-opacity: 0.42"></path><path d="M109.56982632461227,-130.16509439790434L84.58161975891585,-130.1645657464618M109.56982632461227,-130.16509439790434L109.59623961106587,-129.66496536355243M84.58161975891585,-130.1645657464618L84.60803304536945,-129.66443671210988M206.65875600960283,-146.4062459505721L181.67054944390642,-146.40571729912955M206.65875600960283,-146.4062459505721L206.68516929605644,-145.90611691622016M181.67054944390642,-146.40571729912955L181.69696273036004,-145.9055882647776M303.74768569459343,-162.64738375386528L278.759479128897,-162.64685510242273M303.74768569459343,-162.64738375386528L303.774098981047,-162.14725471951337M278.759479128897,-162.64685510242273L278.7858924153506,-162.14672606807082M400.83661537958403,-183.56072401928665L375.84840881388766,-183.5601953678441M400.83661537958403,-183.56072401928665L400.8630286660377,-183.06059498493474M375.84840881388766,-183.5601953678441L375.87482210034125,-183.0600663334922" style="fill:none;stroke:rgb(0,0,0);stroke-width:1;stroke-linecap:round"></path><path d="M375.8748221003413,183.5442918827585L375.84840881388766,183.0441628484066L400.83661537958403,183.043634196964zM278.7858924153506,162.63505965146916L278.759479128897,162.13493061711722L303.74768569459343,162.13440196567467zM181.69696273036004,146.398029882308L181.67054944390642,145.8979008479561L206.65875600960283,145.89737219651352zM84.60803304536945,130.1609863637723L84.58161975891585,129.6608573294204L109.56982632461228,129.66032867797782zM400.86302866603774,183.54376323131592L400.83661537958403,183.043634196964L400.83661537958403,-183.56072401928668zM303.7740989810471,162.6345310000266L303.74768569459343,162.13440196567467L303.74768569459343,-162.64738375386528zM206.68516929605644,146.39750123086543L206.65875600960283,145.89737219651352L206.65875600960283,-146.4062459505721zM109.59623961106588,130.16045771232973L109.56982632461228,129.66032867797782L109.56982632461228,-130.16509439790434z" style="fill:rgb(238,238,238); fill-opacity: 0.42"></path><path d="M348.2174053533131,-7.403276128841617L348.2139446204973,2.6055654983828638L348.2230049360624,-0.007367019053985916zM251.12847566832244,-7.401222111775596L251.1250149355066,2.6076195154488846L251.13407525107175,-0.00531300198796472zM154.0395459833319,-7.399168094709575L154.03608525051607,2.609673532514906L154.04514556608123,-0.0032589849219435275zM56.9506162983413,-7.397114077643553L56.947155565525456,2.611727549580927L56.95621588109062,-0.001204967855922333z" style="fill:rgb(0,0,0)"></path><path d="M1.800612763835425,-87.4773658769835L1.8006127638354263,87.40513624113412M1.8006127638354263,87.40513624113412L-1.8044233955624556,87.40521250941536M1.8006127638354263,87.40513624113412L1.8044233955629754,87.47728960870225M-1.804423395562457,-87.47728960870225L-1.8044233955624556,87.40521250941536M-1.8044233955624556,87.40521250941536L-1.8006127638349065,87.4773658769835" style="fill:none;stroke:rgb(0,0,0);stroke-width:1;stroke-linecap:round"></path><path d="M84.58161975891585,-130.16456574646176L84.58161975891585,129.6608573294204L84.60803304536945,-129.66443671210985zM181.67054944390642,-146.40571729912955L181.67054944390642,145.8979008479561L181.69696273036004,-145.9055882647776zM278.759479128897,-162.64685510242273L278.759479128897,162.13493061711722L278.7858924153506,-162.14672606807082zM375.84840881388766,-183.5601953678441L375.84840881388766,183.0441628484066L375.8748221003413,-183.0600663334922z" style="fill:rgb(238,238,238); fill-opacity: 0.42"></path><path d="M348.2139446204973,2.6055654983828638L348.2230049360624,9.00342308129658L348.2230049360624,-0.007367019053985916zM251.1250149355066,2.6076195154488846L251.13407525107175,9.0054770983626L251.13407525107175,-0.00531300198796472zM154.03608525051607,2.609673532514906L154.04514556608123,9.007531115428623L154.04514556608123,-0.0032589849219435275zM56.947155565525456,2.611727549580927L56.95621588109062,9.009585132494644L56.95621588109062,-0.001204967855922333z" style="fill:rgb(0,0,0)"></path><path d="M1.8006127638354263,87.40513624113412L-1.8044233955624556,87.40521250941536L-1.804423395562457,-87.47728960870225zM-1.8006127638349065,87.4773658769835L-1.8044233955624556,87.40521250941536L1.8006127638354263,87.40513624113412zM109.59623961106588,-129.66496536355243L109.56982632461228,-130.16509439790434L84.58161975891585,-130.16456574646176zM206.68516929605644,-145.90611691622018L206.65875600960283,-146.4062459505721L181.67054944390642,-146.40571729912955zM303.7740989810471,-162.14725471951337L303.74768569459343,-162.64738375386528L278.759479128897,-162.64685510242273zM1.800612763835425,-87.4773658769835L1.8006127638354263,87.40513624113412L-1.804423395562457,-87.47728960870225zM1.8044233955629754,87.47728960870225L1.8006127638354263,87.40513624113412L1.800612763835425,-87.4773658769835zM1.8044233955629754,87.47728960870225L-1.8006127638349065,87.4773658769835L1.8006127638354263,87.40513624113412zM400.86302866603774,-183.06059498493477L400.83661537958403,-183.56072401928668L375.84840881388766,-183.5601953678441z" style="fill:rgb(238,238,238); fill-opacity: 0.42"></path><path d="M307.3659284628864,-0.00650264519986266L348.2230049360624,-0.007367019053985917" style="fill:none;stroke:rgb(0,0,0);stroke-width:1;stroke-linecap:round"></path><path d="M348.2174053533131,-7.403276128841617L348.2286045188118,-7.191222705038617L372.2565793320484,-0.007875474262293715zM348.2286045188118,-7.191222705038617L348.2174053533131,-7.403276128841617L348.2230049360624,-0.007367019053985916z" style="fill:rgb(0,0,0)"></path><path d="M210.2769987778958,-0.004448628133841464L251.13407525107178,-0.005313001987964721" style="fill:none;stroke:rgb(0,0,0);stroke-width:1;stroke-linecap:round"></path><path d="M251.12847566832244,-7.401222111775596L251.13967483382106,-7.189168687972595L275.16764964705766,-0.005821457196272519zM251.13967483382106,-7.189168687972595L251.12847566832244,-7.401222111775596L251.13407525107175,-0.00531300198796472z" style="fill:rgb(0,0,0)"></path><path d="M113.18806909290522,-0.002394611067820271L154.0451455660812,-0.003258984921943527" style="fill:none;stroke:rgb(0,0,0);stroke-width:1;stroke-linecap:round"></path><path d="M154.0395459833319,-7.399168094709575L154.05074514883052,-7.187114670906575L178.07871996206705,-0.0037674401302513244zM154.05074514883052,-7.187114670906575L154.0395459833319,-7.399168094709575L154.04514556608123,-0.0032589849219435275z" style="fill:rgb(0,0,0)"></path><path d="M16.09913940791462,-0.0003405940017990766L56.956215881090614,-0.001204967855922333M1.800612763835425,-87.4773658769835L-1.804423395562457,-87.47728960870225M1.800612763835425,-87.4773658769835L1.804423395562974,-87.40521250941536M-1.804423395562457,-87.47728960870225L-1.8006127638349079,-87.40513624113412" style="fill:none;stroke:rgb(0,0,0);stroke-width:1;stroke-linecap:round"></path><path d="M-1.804423395562457,-87.47728960870225L-1.8044233955624556,87.40521250941536L-1.8006127638349079,-87.40513624113412zM-1.8044233955624556,87.40521250941536L-1.8006127638349065,87.4773658769835L-1.8006127638349079,-87.40513624113412z" style="fill:rgb(238,238,238); fill-opacity: 0.42"></path><path d="M56.9506162983413,-7.397114077643553L56.96181546383993,-7.185060653840553L80.98979027707651,-0.0017134230642301311zM56.96181546383993,-7.185060653840553L56.9506162983413,-7.397114077643553L56.95621588109062,-0.001204967855922333z" style="fill:rgb(0,0,0)"></path><path d="M-1.8006127638349065,87.4773658769835L1.8044233955629754,87.47728960870225M1.804423395562974,-87.40521250941536L1.8044233955629754,87.47728960870225M-1.8006127638349079,-87.40513624113412L-1.8006127638349065,87.4773658769835" style="fill:none;stroke:rgb(0,0,0);stroke-width:1;stroke-linecap:round"></path><path d="M400.86302866603774,183.54376323131592L375.8748221003413,183.5442918827585L400.83661537958403,183.043634196964zM303.7740989810471,162.6345310000266L278.7858924153506,162.63505965146916L303.74768569459343,162.13440196567467zM206.68516929605644,146.39750123086543L181.69696273036004,146.398029882308L206.65875600960283,145.89737219651352zM1.804423395562974,-87.40521250941536L1.800612763835425,-87.4773658769835L-1.804423395562457,-87.47728960870225zM1.804423395562974,-87.40521250941536L1.8044233955629754,87.47728960870225L1.800612763835425,-87.4773658769835zM-1.8006127638349065,87.4773658769835L1.8044233955629754,87.47728960870225L1.804423395562974,-87.40521250941536zM109.59623961106588,130.16045771232973L84.60803304536945,130.1609863637723L109.56982632461228,129.66032867797782zM-1.8006127638349079,-87.40513624113412L1.804423395562974,-87.40521250941536L-1.804423395562457,-87.47728960870225zM-1.8006127638349079,-87.40513624113412L-1.8006127638349065,87.4773658769835L1.804423395562974,-87.40521250941536z" style="fill:rgb(238,238,238); fill-opacity: 0.42"></path><path d="M348.2320652516276,2.9486751589308593L348.2230049360624,9.00342308129658L372.2565793320484,-0.007875474262293715zM348.2230049360624,9.00342308129658L348.2320652516276,2.9486751589308593L348.2230049360624,-0.007367019053985916zM251.1431355666369,2.9507291759968806L251.13407525107175,9.0054770983626L275.16764964705766,-0.005821457196272519zM251.13407525107175,9.0054770983626L251.1431355666369,2.9507291759968806L251.13407525107175,-0.00531300198796472z" style="fill:rgb(0,0,0)"></path><path d="M375.84840881388766,183.0441628484066L375.8748221003413,183.5442918827585L375.8748221003413,-183.0600663334922z" style="fill:rgb(238,238,238); fill-opacity: 0.42"></path><path d="M154.0542058816464,2.952783193062902L154.04514556608123,9.007531115428623L178.07871996206705,-0.0037674401302513244zM154.04514556608123,9.007531115428623L154.0542058816464,2.952783193062902L154.04514556608123,-0.0032589849219435275zM56.96527619665578,2.9548372101289226L56.95621588109062,9.009585132494644L80.98979027707651,-0.0017134230642301311zM56.95621588109062,9.009585132494644L56.96527619665578,2.9548372101289226L56.95621588109062,-0.001204967855922333z" style="fill:rgb(0,0,0)"></path><path d="M278.759479128897,162.13493061711722L278.7858924153506,162.63505965146916L278.7858924153506,-162.14672606807082zM181.67054944390642,145.8979008479561L181.69696273036004,146.398029882308L181.69696273036004,-145.9055882647776zM84.58161975891585,129.6608573294204L84.60803304536945,130.1609863637723L84.60803304536945,-129.66443671210985z" style="fill:rgb(238,238,238); fill-opacity: 0.42"></path><path d="M-1.8006127638349079,-87.40513624113412L1.804423395562974,-87.40521250941536" style="fill:none;stroke:rgb(0,0,0);stroke-width:1;stroke-linecap:round"></path><path d="M348.2286045188118,-7.191222705038617L348.2320652516276,2.9486751589308593L372.2565793320484,-0.007875474262293715zM348.2320652516276,2.9486751589308593L348.2286045188118,-7.191222705038617L348.2230049360624,-0.007367019053985916zM251.13967483382106,-7.189168687972595L251.1431355666369,2.9507291759968806L275.16764964705766,-0.005821457196272519zM251.1431355666369,2.9507291759968806L251.13967483382106,-7.189168687972595L251.13407525107175,-0.00531300198796472zM154.05074514883052,-7.187114670906575L154.0542058816464,2.952783193062902L178.07871996206705,-0.0037674401302513244zM154.0542058816464,2.952783193062902L154.05074514883052,-7.187114670906575L154.04514556608123,-0.0032589849219435275zM56.96181546383993,-7.185060653840553L56.96527619665578,2.9548372101289226L80.98979027707651,-0.0017134230642301311zM56.96527619665578,2.9548372101289226L56.96181546383993,-7.185060653840553L56.95621588109062,-0.001204967855922333z" style="fill:rgb(0,0,0)"></path><path d="M109.59623961106588,-129.66496536355243L109.59623961106588,130.16045771232973L109.56982632461228,-130.16509439790434zM206.68516929605644,-145.90611691622018L206.68516929605644,146.39750123086543L206.65875600960283,-146.4062459505721zM303.7740989810471,-162.14725471951337L303.7740989810471,162.6345310000266L303.74768569459343,-162.64738375386528zM400.86302866603774,-183.06059498493477L400.86302866603774,183.54376323131592L400.83661537958403,-183.56072401928668zM84.60803304536945,-129.66443671210985L109.59623961106588,-129.66496536355243L84.58161975891585,-130.16456574646176zM181.69696273036004,-145.9055882647776L206.68516929605644,-145.90611691622018L181.67054944390642,-146.40571729912955zM278.7858924153506,-162.14672606807082L303.7740989810471,-162.14725471951337L278.759479128897,-162.64685510242273zM375.8748221003413,-183.0600663334922L400.86302866603774,-183.06059498493477L375.84840881388766,-183.5601953678441z" style="fill:rgb(238,238,238); fill-opacity: 0.42"></path><path d="M375.87482210034125,183.5442918827585L400.8630286660377,183.54376323131595M400.8630286660377,-183.06059498493474L400.8630286660377,183.54376323131595M375.87482210034125,-183.0600663334922L375.87482210034125,183.5442918827585M278.7858924153506,162.63505965146916L303.774098981047,162.6345310000266M303.774098981047,-162.14725471951337L303.774098981047,162.6345310000266M278.7858924153506,-162.14672606807082L278.7858924153506,162.63505965146916M181.69696273036004,146.398029882308L206.68516929605644,146.39750123086546M206.68516929605644,-145.90611691622016L206.68516929605644,146.39750123086546M181.69696273036004,-145.9055882647776L181.69696273036004,146.398029882308M84.60803304536945,130.16098636377228L109.59623961106587,130.16045771232973M109.59623961106587,-129.66496536355243L109.59623961106587,130.16045771232973M84.60803304536945,-129.66443671210988L84.60803304536945,130.16098636377228" style="fill:none;stroke:rgb(0,0,0);stroke-width:1;stroke-linecap:round"></path><path d="M375.8748221003413,183.5442918827585L400.86302866603774,183.54376323131592L400.86302866603774,-183.06059498493477zM278.7858924153506,162.63505965146916L303.7740989810471,162.6345310000266L303.7740989810471,-162.14725471951337zM181.69696273036004,146.398029882308L206.68516929605644,146.39750123086543L206.68516929605644,-145.90611691622018zM84.60803304536945,130.1609863637723L109.59623961106588,130.16045771232973L109.59623961106588,-129.66496536355243zM84.60803304536945,-129.66443671210985L84.60803304536945,130.1609863637723L109.59623961106588,-129.66496536355243zM181.69696273036004,-145.9055882647776L181.69696273036004,146.398029882308L206.68516929605644,-145.90611691622018zM278.7858924153506,-162.14672606807082L278.7858924153506,162.63505965146916L303.7740989810471,-162.14725471951337zM375.8748221003413,-183.0600663334922L375.8748221003413,183.5442918827585L400.86302866603774,-183.06059498493477z" style="fill:rgb(238,238,238); fill-opacity: 0.42"></path><path d="M84.60803304536945,-129.66443671210988L109.59623961106587,-129.66496536355243M181.69696273036004,-145.9055882647776L206.68516929605644,-145.90611691622016M278.7858924153506,-162.14672606807082L303.774098981047,-162.14725471951337M375.87482210034125,-183.0600663334922L400.8630286660377,-183.06059498493474" style="fill:none;stroke:rgb(0,0,0);stroke-width:1;stroke-linecap:round"></path></svg>